# xmcd CD database file
#
# Track frame offsets:
#	150
#	20138
#	35317
#	56528
#	73842
#	94409
#	108998
#	126562
#	142442
#	156838
#	178768
#	196310
#	218817
#	240483
#	253126
#	270171
#
# Disc length: 3984 seconds
#
# Revision: 0
# Processed by: cddbd v1.5.2PL0 Copyright (c) Steve Scherf et al.
# Submitted via: CDex 1.51
#
DISCID=f60f8e10
DTITLE=Cool Tributes - The Chill-Out Sessions - Cool Tributes - The Chill-Out Sessions - CD 2
DYEAR=2009
DGENRE=Jazz
TTITLE0=Baby Charles - I Bet You Look Good On The Dancefloor (Orig. by The Arctic Monkeys)
TTITLE1=Melissa Laveaux - Needle In The Hay (Orig. by Elliot Smith)
TTITLE2=Vandaveer - The Man In Me (Orig. by Bob Dylan)
TTITLE3=Rachelle Spring - Stay'in Alive (Orig. by Bee Gees)
TTITLE4=Eldissa - Ring My Bell (Orig. by Anita Ward)
TTITLE5=Border Sound - Hot Stuff (Orig. by Donna Summer)
TTITLE6=Jazzkantine - I Was Made For Loving You (Orig. by Kiss)
TTITLE7=Eli Goulart and Banda Do Mato - Sunny (Orig. by Bobby Hebb)
TTITLE8=Naosol and The Waxx Blend - Clint Eastwood (Orig. by Gorillaz)
TTITLE9=Pat Kelly - A Whiter Shade Of Pale (Orig. by Procol Harum)
TTITLE10=Jimmy London - It's Now Or Never (Orig. by Elvis Presley)
TTITLE11=Norah Jones and Joel Harrison - I Walk The Line (Orig. by Johnny Cash)
TTITLE12=Rigmor Gustaffson and Nils Landgren - If You Go Away (Orig. by Jaques Brel)
TTITLE13=Annie Ducros - L'eau de la bouche (Orig. by Serge Gainsbourg)
TTITLE14=Yaron Herman - Hallelujah (Orig. by Leonard Cohen)
TTITLE15=Michel Pertucciani - Besame Mucheo (Orig. by Consuelo Veláquez)
EXTD=YEAR: 2009
EXTT0=
EXTT1=
EXTT2=
EXTT3=
EXTT4=
EXTT5=
EXTT6=
EXTT7=
EXTT8=
EXTT9=
EXTT10=
EXTT11=
EXTT12=
EXTT13=
EXTT14=
EXTT15=
PLAYORDER=
